# xmcd
#
# Track frame offsets:
#	150
#	15258
#	29316
#	43049
#	66707
#	82678
#	96240
#	115418
#	128458
#	141268
#
# Disc length: 2080 seconds
#
# Revision: 1
# Processed by: cddbd v1.5.2PL0 Copyright (c) Steve Scherf et al.
# Submitted via: audiograbber 1.83.01
#
DISCID=7d081e0a
DTITLE=Al Green - Collectors Edition (Disk 2)
DYEAR=1900
DGENRE=Blues
TTITLE0=You Ought To Be With Me
TTITLE1=Look What You Done For Me
TTITLE2=Sha-La-La (Make Me Happy)
TTITLE3=Full Of Fire
TTITLE4=La-La For You
TTITLE5=Driving Wheel
TTITLE6=Here I Am (Come And Take Me)
TTITLE7=You Say It
TTITLE8=Oh Me, Oh My (Dreams In My Arms)
TTITLE9=Let It Shine
EXTD=
EXTT0=
EXTT1=
EXTT2=
EXTT3=
EXTT4=
EXTT5=
EXTT6=
EXTT7=
EXTT8=
EXTT9=
PLAYORDER=
